{
  "title": "Wolves 2014 HDRip x264 Pimp4003",
  "uid": 11236495,
  "size": 1074710180,
  "categoryP": "video",
  "categoryS": "movies",
  "magnet": "?xt=urn:btih:ac947a676e835ee24dfa7fd65e08615eae191c83&amp;dn=Wolves+2014+HDRip+x264+Pimp4003&amp;tr=udp%3A%2F%2Ftracker.openbittorrent.com%3A80&amp;tr=udp%3A%2F%2Fopen.demonii.com%3A1337&amp;tr=udp%3A%2F%2Ftracker.coppersurfer.tk%3A6969&amp;tr=udp%3A%2F%2Fexodus.desync.com%3A6969",
  "seeders": 39,
  "leechers": 2,
  "uploader": "shawnmurthy",
  "files": -1,
  "time": 1413600985,
  "description": "FOR REQUESTS, EXCLUSIVE MOVIES AND SUPER FAST SPEEDS AND FOR SCREENSHOTS AND SAMPLE....CLICK BELOW LINK\n\nWolves 2014 HDRip x264 Pimp4003\n\nENJOY\n\nPIMP4003\n\nVideo\nID                                       : 1\nFormat                                   : MPEG-4 Visual\nFormat profile                           : Simple@L3\nFormat settings, BVOP                    : No\nFormat settings, QPel                    : No\nFormat settings, GMC                     : No warppoints\nFormat settings, Matrix                  : Default (H.263)\nCodec ID                                 : 20\nDuration                                 : 1h 30mn\nBit rate                                 : 1 414 Kbps\nWidth                                    : 720 pixels\nHeight                                   : 384 pixels\nDisplay aspect ratio                     : 1.85:1\nFrame rate mode                          : Variable\nFrame rate                               : 23.976 fps\nMinimum frame rate                       : 23.976 fps\nMaximum frame rate                       : 24.000 fps\nColor space                              : YUV\nChroma subsampling                       : 4:2:0\nBit depth                                : 8 bits\nScan type                                : Progressive\nCompression mode                         : Lossy\nBits/(Pixel*Frame)                       : 0.213\nStream size                              : 918 MiB (90%)\nWriting library                          : ZJMedia MPEG Encoder\nEncoded date                             : UTC 1970-01-01 00:00:00\nTagged date                              : UTC 1970-01-01 00:00:00\n\nAudio\nID                                       : 2\nFormat                                   : AAC\nFormat/Info                              : Advanced Audio Codec\nFormat profile                           : LC\nCodec ID                                 : 40\nDuration                                 : 1h 30mn\nBit rate mode                            : Variable\nBit rate                                 : 160 Kbps\nChannel(s)                               : 2 channels\nChannel positions                        : Front: L R\nSampling rate                            : 48.0 KHz\nCompression mode                         : Lossy\nStream size                              : 104 MiB (10%)\nEncoded date                             : UTC 1970-01-01 00:00:00\nTagged date                              : UTC 1970-01-01 00:00:00\n &lt;a href=&quot;\nhttp://i.imgur.com/Pn4LLYd.png&quot; rel=&quot;nofollow&quot; target=&quot;_NEW&quot;&gt;\nhttp://i.imgur.com/Pn4LLYd.png&lt;/a&gt; &lt;a href=&quot;\nhttp://i.imgur.com/Dbt9qdu.png&quot; rel=&quot;nofollow&quot; target=&quot;_NEW&quot;&gt;\nhttp://i.imgur.com/Dbt9qdu.png&lt;/a&gt; &lt;a href=&quot;\nhttp://i.imgur.com/Jb4PsvP.png&quot; rel=&quot;nofollow&quot; target=&quot;_NEW&quot;&gt;\nhttp://i.imgur.com/Jb4PsvP.png&lt;/a&gt;",
  "parsed": {
    "xt": "urn:btih:ac947a676e835ee24dfa7fd65e08615eae191c83",
    "dn": "Wolves 2014 HDRip x264 Pimp4003",
    "tr": [
      "udp://exodus.desync.com:6969",
      "udp://open.demonii.com:1337",
      "udp://tracker.coppersurfer.tk:6969",
      "udp://tracker.openbittorrent.com:80"
    ],
    "infoHash": "ac947a676e835ee24dfa7fd65e08615eae191c83",
    "infoHashBuffer": {
      "type": "Buffer",
      "data": [
        172,
        148,
        122,
        103,
        110,
        131,
        94,
        226,
        77,
        250,
        127,
        214,
        94,
        8,
        97,
        94,
        174,
        25,
        28,
        131
      ]
    },
    "name": "Wolves 2014 HDRip x264 Pimp4003",
    "announce": [
      "udp://exodus.desync.com:6969",
      "udp://open.demonii.com:1337",
      "udp://tracker.coppersurfer.tk:6969",
      "udp://tracker.openbittorrent.com:80"
    ],
    "urlList": []
  },
  "previous": 41,
  "peers": 3,
  "last_updated": "2016-12-25T10:49:34.300Z"
}